<svg width="573" height="472" viewBox="0 0 573 472" fill="none" xmlns="http://www.w3.org/2000/svg">
<path d="M7.06702 445.863L568.571 445.804" stroke="#31346F" stroke-width="25.6284"/>
<path d="M7.06702 327.756L453.681 327.253" stroke="#31346F" stroke-width="25.6284"/>
<path d="M0.327637 198.366L370.35 201.93" stroke="#31346F" stroke-width="25.6284"/>
<path d="M69.615 124.548V197.863H55.4684V166.575H22.2187V197.863H7.96886V124.548H22.2187V154.184H55.4684V124.548H69.615ZM107.752 198.895C103.415 198.895 99.4909 198.173 95.9801 196.727C92.4693 195.213 89.4747 193.182 86.9965 190.635C84.5182 188.019 82.5907 185.059 81.2139 181.754C79.906 178.381 79.252 174.836 79.252 171.119C79.252 165.956 80.3879 161.24 82.6596 156.972C85.0001 152.704 88.3044 149.296 92.5725 146.749C96.9094 144.133 102.004 142.825 107.855 142.825C113.775 142.825 118.835 144.133 123.034 146.749C127.233 149.296 130.434 152.704 132.637 156.972C134.909 161.171 136.045 165.715 136.045 170.602C136.045 171.428 136.01 172.289 135.942 173.184C135.873 174.01 135.804 174.698 135.735 175.249H93.9149C94.1903 178.003 94.9819 180.412 96.2899 182.477C97.6667 184.542 99.3877 186.126 101.453 187.227C103.587 188.26 105.859 188.776 108.268 188.776C111.022 188.776 113.603 188.122 116.012 186.814C118.491 185.437 120.177 183.647 121.072 181.445L132.947 184.749C131.639 187.502 129.746 189.946 127.268 192.08C124.858 194.214 122.002 195.901 118.697 197.14C115.393 198.31 111.744 198.895 107.752 198.895ZM93.6051 166.472H121.898C121.623 163.718 120.831 161.343 119.523 159.347C118.284 157.282 116.632 155.698 114.567 154.597C112.502 153.427 110.196 152.842 107.648 152.842C105.17 152.842 102.898 153.427 100.833 154.597C98.8369 155.698 97.1848 157.282 95.8768 159.347C94.6377 161.343 93.8805 163.718 93.6051 166.472ZM140.757 181.858C140.757 178.347 141.721 175.283 143.648 172.667C145.645 169.983 148.398 167.918 151.909 166.472C155.42 165.026 159.447 164.303 163.99 164.303C166.262 164.303 168.568 164.476 170.909 164.82C173.249 165.164 175.28 165.715 177.001 166.472V163.581C177.001 160.139 175.969 157.488 173.903 155.63C171.907 153.771 168.912 152.842 164.92 152.842C161.96 152.842 159.137 153.358 156.452 154.391C153.768 155.423 150.945 156.938 147.985 158.934L143.545 149.847C147.125 147.507 150.773 145.751 154.49 144.581C158.277 143.411 162.235 142.825 166.365 142.825C174.075 142.825 180.064 144.753 184.333 148.608C188.669 152.463 190.838 157.97 190.838 165.13V182.374C190.838 183.82 191.079 184.852 191.561 185.472C192.111 186.091 192.972 186.47 194.142 186.608V197.863C192.903 198.069 191.767 198.242 190.735 198.379C189.771 198.517 188.945 198.586 188.256 198.586C185.503 198.586 183.403 197.966 181.958 196.727C180.581 195.488 179.72 193.973 179.376 192.184L179.066 189.396C176.726 192.425 173.8 194.765 170.289 196.417C166.778 198.069 163.199 198.895 159.55 198.895C155.971 198.895 152.735 198.173 149.844 196.727C147.021 195.213 144.784 193.182 143.132 190.635C141.549 188.019 140.757 185.093 140.757 181.858ZM174.42 184.646C175.177 183.82 175.796 182.993 176.278 182.167C176.76 181.341 177.001 180.584 177.001 179.896V174.423C175.349 173.735 173.559 173.218 171.632 172.874C169.704 172.461 167.88 172.254 166.159 172.254C162.579 172.254 159.619 173.046 157.278 174.629C155.007 176.144 153.871 178.175 153.871 180.722C153.871 182.099 154.25 183.407 155.007 184.646C155.764 185.885 156.865 186.883 158.311 187.64C159.757 188.397 161.478 188.776 163.474 188.776C165.539 188.776 167.57 188.397 169.566 187.64C171.563 186.814 173.181 185.816 174.42 184.646ZM203.665 122.483H217.502V180.515C217.502 182.993 217.915 184.68 218.741 185.575C219.567 186.401 220.703 186.814 222.148 186.814C223.25 186.814 224.386 186.676 225.556 186.401C226.726 186.126 227.759 185.781 228.654 185.368L230.512 195.901C228.654 196.796 226.485 197.484 224.007 197.966C221.529 198.448 219.291 198.689 217.295 198.689C212.958 198.689 209.585 197.553 207.176 195.281C204.835 192.941 203.665 189.637 203.665 185.368V122.483ZM268.359 195.075C267.189 195.557 265.778 196.107 264.126 196.727C262.474 197.347 260.684 197.828 258.756 198.173C256.898 198.586 255.004 198.792 253.077 198.792C250.53 198.792 248.189 198.345 246.055 197.45C243.921 196.555 242.2 195.144 240.892 193.216C239.653 191.22 239.034 188.638 239.034 185.472V154.391H231.909V143.755H239.034V126.201H252.87V143.755H264.229V154.391H252.87V180.825C252.939 182.684 253.456 184.026 254.419 184.852C255.383 185.678 256.588 186.091 258.033 186.091C259.479 186.091 260.89 185.85 262.267 185.368C263.644 184.887 264.745 184.474 265.571 184.129L268.359 195.075ZM325.853 197.863H312.017V167.505C312.017 163.305 311.19 160.173 309.538 158.108C307.955 156.043 305.752 155.01 302.93 155.01C301.278 155.01 299.522 155.492 297.663 156.456C295.805 157.419 294.118 158.762 292.604 160.483C291.158 162.135 290.091 164.063 289.403 166.265V197.863H275.566V122.483H289.403V153.771C291.399 150.329 294.118 147.644 297.56 145.717C301.002 143.789 304.754 142.825 308.815 142.825C312.326 142.825 315.183 143.445 317.386 144.684C319.589 145.854 321.31 147.472 322.549 149.537C323.788 151.534 324.649 153.805 325.131 156.352C325.612 158.831 325.853 161.412 325.853 164.097V197.863ZM338.012 208.395C339.251 208.671 340.387 208.912 341.42 209.118C342.521 209.325 343.451 209.428 344.208 209.428C345.516 209.428 346.583 209.084 347.409 208.395C348.304 207.776 349.164 206.606 349.99 204.885C350.816 203.232 351.677 200.892 352.572 197.863L331.197 143.755H345.55L360.11 183.716L372.914 143.755H386.131L363.414 208.602C362.588 211.011 361.314 213.18 359.593 215.107C357.941 217.104 355.842 218.653 353.295 219.754C350.816 220.924 348.028 221.509 344.931 221.509C343.829 221.509 342.728 221.406 341.626 221.2C340.525 221.062 339.32 220.787 338.012 220.374V208.395ZM56.914 321.863H43.0772V291.505C43.0772 287.305 42.2511 284.173 40.599 282.108C39.0156 280.043 36.8128 279.01 33.9903 279.01C32.3382 279.01 30.5828 279.492 28.7241 280.456C26.8654 281.419 25.1788 282.762 23.6644 284.483C22.2187 286.135 21.1517 288.063 20.4633 290.265V321.863H6.62648V246.483H20.4633V277.771C22.4597 274.329 25.1788 271.644 28.6208 269.717C32.0628 267.789 35.8146 266.825 39.8761 266.825C43.387 266.825 46.2438 267.445 48.4467 268.684C50.6496 269.854 52.3706 271.472 53.6097 273.537C54.8488 275.534 55.7093 277.805 56.1912 280.352C56.6731 282.831 56.914 285.412 56.914 288.097V321.863ZM65.228 305.858C65.228 302.347 66.1918 299.283 68.1193 296.667C70.1157 293.983 72.8693 291.918 76.3801 290.472C79.8909 289.026 83.9181 288.303 88.4615 288.303C90.7332 288.303 93.0393 288.476 95.3799 288.82C97.7204 289.164 99.7512 289.715 101.472 290.472V287.581C101.472 284.139 100.44 281.488 98.3744 279.63C96.3781 277.771 93.3835 276.842 89.3908 276.842C86.4307 276.842 83.6083 277.358 80.9235 278.391C78.2388 279.423 75.4163 280.938 72.4562 282.934L68.016 273.847C71.5957 271.507 75.2442 269.751 78.9616 268.581C82.7478 267.411 86.7061 266.825 90.8365 266.825C98.5465 266.825 104.536 268.753 108.804 272.608C113.141 276.463 115.309 281.97 115.309 289.13V306.374C115.309 307.82 115.55 308.852 116.032 309.472C116.583 310.091 117.443 310.47 118.613 310.608V321.863C117.374 322.069 116.238 322.242 115.206 322.379C114.242 322.517 113.416 322.586 112.728 322.586C109.974 322.586 107.874 321.966 106.429 320.727C105.052 319.488 104.191 317.973 103.847 316.184L103.537 313.396C101.197 316.425 98.2712 318.765 94.7603 320.417C91.2495 322.069 87.6698 322.895 84.0213 322.895C80.4416 322.895 77.2062 322.173 74.3149 320.727C71.4925 319.213 69.2552 317.182 67.603 314.635C66.0197 312.019 65.228 309.093 65.228 305.858ZM98.8907 308.646C99.648 307.82 100.268 306.993 100.749 306.167C101.231 305.341 101.472 304.584 101.472 303.896V298.423C99.8201 297.735 98.0302 297.218 96.1027 296.874C94.1752 296.461 92.3509 296.254 90.6299 296.254C87.0503 296.254 84.0902 297.046 81.7496 298.629C79.4779 300.144 78.342 302.175 78.342 304.722C78.342 306.099 78.7206 307.407 79.4779 308.646C80.2351 309.885 81.3366 310.883 82.7822 311.64C84.2278 312.397 85.9488 312.776 87.9452 312.776C90.0104 312.776 92.0412 312.397 94.0375 311.64C96.0339 310.814 97.6516 309.816 98.8907 308.646ZM159.011 322.895C154.88 322.895 151.197 321.966 147.962 320.107C144.726 318.249 142.179 315.702 140.32 312.466V321.863H128.239V246.483H142.076V277.255C144.003 274.019 146.516 271.472 149.614 269.613C152.781 267.755 156.463 266.825 160.663 266.825C164.174 266.825 167.375 267.583 170.266 269.097C173.157 270.543 175.635 272.574 177.701 275.189C179.835 277.805 181.452 280.8 182.554 284.173C183.724 287.546 184.309 291.16 184.309 295.015C184.309 298.87 183.655 302.484 182.347 305.858C181.108 309.231 179.353 312.225 177.081 314.841C174.809 317.388 172.125 319.385 169.027 320.83C165.998 322.207 162.659 322.895 159.011 322.895ZM155.19 311.124C157.393 311.124 159.389 310.711 161.179 309.885C163.038 308.99 164.621 307.82 165.929 306.374C167.306 304.928 168.338 303.242 169.027 301.314C169.784 299.318 170.163 297.253 170.163 295.119C170.163 292.158 169.543 289.439 168.304 286.961C167.134 284.414 165.481 282.383 163.347 280.869C161.282 279.354 158.838 278.597 156.016 278.597C154.02 278.597 152.092 279.079 150.233 280.043C148.444 280.938 146.826 282.177 145.38 283.76C144.003 285.343 142.902 287.133 142.076 289.13V302.037C142.489 303.414 143.143 304.653 144.038 305.754C145.002 306.856 146.103 307.82 147.342 308.646C148.581 309.403 149.855 310.022 151.163 310.504C152.54 310.917 153.882 311.124 155.19 311.124ZM193.684 321.863V267.755H207.521V321.863H193.684ZM193.684 260.217V246.483H207.521V260.217H193.684ZM252.427 319.075C251.256 319.557 249.845 320.107 248.193 320.727C246.541 321.347 244.751 321.828 242.824 322.173C240.965 322.586 239.072 322.792 237.144 322.792C234.597 322.792 232.257 322.345 230.123 321.45C227.989 320.555 226.268 319.144 224.96 317.216C223.721 315.22 223.101 312.638 223.101 309.472V278.391H215.976V267.755H223.101V250.201H236.938V267.755H248.296V278.391H236.938V304.825C237.007 306.684 237.523 308.026 238.487 308.852C239.45 309.678 240.655 310.091 242.101 310.091C243.546 310.091 244.958 309.85 246.334 309.368C247.711 308.887 248.813 308.474 249.639 308.129L252.427 319.075ZM279.562 322.895C274.95 322.895 270.544 322.138 266.345 320.624C262.146 319.109 258.532 316.872 255.503 313.912L260.459 304.928C263.695 307.544 266.861 309.472 269.959 310.711C273.126 311.95 276.155 312.57 279.046 312.57C281.731 312.57 283.865 312.088 285.448 311.124C287.1 310.16 287.926 308.714 287.926 306.787C287.926 305.479 287.479 304.481 286.584 303.792C285.689 303.035 284.381 302.381 282.66 301.83C281.008 301.28 278.977 300.66 276.568 299.972C272.575 298.664 269.236 297.39 266.552 296.151C263.867 294.912 261.836 293.363 260.459 291.505C259.151 289.577 258.497 287.133 258.497 284.173C258.497 280.593 259.392 277.53 261.182 274.983C263.041 272.367 265.588 270.336 268.823 268.891C272.128 267.445 275.983 266.722 280.388 266.722C284.243 266.722 287.892 267.342 291.334 268.581C294.776 269.751 297.908 271.679 300.731 274.363L295.155 283.14C292.401 281.006 289.785 279.458 287.307 278.494C284.829 277.461 282.316 276.945 279.769 276.945C278.323 276.945 276.946 277.117 275.638 277.461C274.399 277.805 273.367 278.391 272.541 279.217C271.783 279.974 271.405 281.075 271.405 282.521C271.405 283.829 271.749 284.861 272.437 285.619C273.195 286.307 274.296 286.927 275.742 287.477C277.256 288.028 279.08 288.648 281.214 289.336C285.551 290.575 289.2 291.849 292.16 293.157C295.189 294.465 297.461 296.082 298.975 298.01C300.49 299.869 301.247 302.45 301.247 305.754C301.247 311.124 299.285 315.323 295.361 318.352C291.437 321.381 286.171 322.895 279.562 322.895ZM338.769 321.863V281.179H331.644V270.646H338.769V267.342C338.769 262.867 339.492 259.012 340.937 255.777C342.452 252.472 344.551 249.925 347.236 248.135C349.99 246.346 353.191 245.451 356.839 245.451C359.042 245.451 361.245 245.726 363.448 246.277C365.72 246.827 367.957 247.619 370.16 248.652L367.372 259.081C366.339 258.53 365.135 258.083 363.758 257.739C362.381 257.326 361.073 257.119 359.834 257.119C357.493 257.119 355.703 257.945 354.464 259.597C353.225 261.249 352.606 263.659 352.606 266.825V270.646H365.823V281.179H352.606V321.863H338.769ZM397.966 322.895C393.56 322.895 389.602 322.173 386.091 320.727C382.58 319.213 379.586 317.147 377.107 314.531C374.698 311.916 372.839 308.921 371.531 305.548C370.223 302.175 369.569 298.629 369.569 294.912C369.569 291.126 370.223 287.546 371.531 284.173C372.839 280.8 374.698 277.805 377.107 275.189C379.586 272.574 382.58 270.543 386.091 269.097C389.602 267.583 393.56 266.825 397.966 266.825C402.372 266.825 406.295 267.583 409.737 269.097C413.248 270.543 416.243 272.574 418.721 275.189C421.199 277.805 423.058 280.8 424.297 284.173C425.605 287.546 426.259 291.126 426.259 294.912C426.259 298.629 425.605 302.175 424.297 305.548C423.058 308.921 421.199 311.916 418.721 314.531C416.312 317.147 413.351 319.213 409.841 320.727C406.33 322.173 402.372 322.895 397.966 322.895ZM383.819 294.912C383.819 298.079 384.439 300.901 385.678 303.379C386.917 305.789 388.604 307.682 390.738 309.059C392.872 310.435 395.281 311.124 397.966 311.124C400.582 311.124 402.957 310.435 405.091 309.059C407.225 307.613 408.911 305.686 410.15 303.276C411.458 300.798 412.112 297.975 412.112 294.809C412.112 291.711 411.458 288.923 410.15 286.445C408.911 283.967 407.225 282.039 405.091 280.662C402.957 279.285 400.582 278.597 397.966 278.597C395.281 278.597 392.872 279.32 390.738 280.765C388.604 282.142 386.917 284.07 385.678 286.548C384.439 288.957 383.819 291.745 383.819 294.912ZM467.815 279.733C463.616 279.733 459.864 280.559 456.56 282.211C453.256 283.794 450.881 286.101 449.435 289.13V321.863H435.598V267.755H448.299V279.32C450.227 275.602 452.671 272.677 455.631 270.543C458.591 268.409 461.723 267.238 465.027 267.032C465.785 267.032 466.37 267.032 466.783 267.032C467.196 267.032 467.54 267.066 467.815 267.135V279.733ZM2.90913 429.858C2.90913 426.347 3.87289 423.283 5.80041 420.667C7.79676 417.983 10.5504 415.918 14.0612 414.472C17.572 413.026 21.5992 412.303 26.1426 412.303C28.4143 412.303 30.7204 412.476 33.061 412.82C35.4015 413.164 37.4323 413.715 39.1533 414.472V411.581C39.1533 408.139 38.1207 405.488 36.0555 403.63C34.0592 401.771 31.0646 400.842 27.0719 400.842C24.1118 400.842 21.2894 401.358 18.6046 402.391C15.9199 403.423 13.0974 404.938 10.1373 406.934L5.69715 397.847C9.27682 395.507 12.9253 393.751 16.6427 392.581C20.4289 391.411 24.3872 390.825 28.5176 390.825C36.2276 390.825 42.2167 392.753 46.4848 396.608C50.8217 400.463 52.9901 405.97 52.9901 413.13V430.374C52.9901 431.82 53.2311 432.852 53.713 433.472C54.2637 434.091 55.1242 434.47 56.2945 434.608V445.863C55.0553 446.069 53.9195 446.242 52.8869 446.379C51.9231 446.517 51.097 446.586 50.4086 446.586C47.655 446.586 45.5554 445.966 44.1098 444.727C42.733 443.488 41.8725 441.973 41.5283 440.184L41.2185 437.396C38.878 440.425 35.9523 442.765 32.4414 444.417C28.9306 446.069 25.3509 446.895 21.7024 446.895C18.1227 446.895 14.8873 446.173 11.996 444.727C9.17356 443.213 6.93626 441.182 5.28411 438.635C3.70079 436.019 2.90913 433.093 2.90913 429.858ZM36.5718 432.646C37.3291 431.82 37.9486 430.993 38.4305 430.167C38.9124 429.341 39.1533 428.584 39.1533 427.896V422.423C37.5012 421.735 35.7113 421.218 33.7838 420.874C31.8563 420.461 30.032 420.254 28.311 420.254C24.7314 420.254 21.7713 421.046 19.4307 422.629C17.159 424.144 16.0231 426.175 16.0231 428.722C16.0231 430.099 16.4017 431.407 17.159 432.646C17.9162 433.885 19.0177 434.883 20.4633 435.64C21.9089 436.397 23.6299 436.776 25.6263 436.776C27.6915 436.776 29.7223 436.397 31.7186 435.64C33.715 434.814 35.3327 433.816 36.5718 432.646ZM121.498 446.895C117.368 446.895 113.685 445.966 110.449 444.107C107.214 442.249 104.667 439.702 102.808 436.466V445.863H90.7268V370.483H104.564V401.255C106.491 398.019 109.004 395.472 112.102 393.613C115.268 391.755 118.951 390.825 123.15 390.825C126.661 390.825 129.862 391.583 132.753 393.097C135.645 394.543 138.123 396.574 140.188 399.189C142.322 401.805 143.94 404.8 145.041 408.173C146.212 411.546 146.797 415.16 146.797 419.015C146.797 422.87 146.143 426.484 144.835 429.858C143.596 433.231 141.84 436.225 139.569 438.841C137.297 441.388 134.612 443.385 131.514 444.83C128.485 446.207 125.147 446.895 121.498 446.895ZM117.678 435.124C119.88 435.124 121.877 434.711 123.667 433.885C125.525 432.99 127.109 431.82 128.417 430.374C129.793 428.928 130.826 427.242 131.514 425.314C132.272 423.318 132.65 421.253 132.65 419.119C132.65 416.158 132.031 413.439 130.792 410.961C129.621 408.414 127.969 406.383 125.835 404.869C123.77 403.354 121.326 402.597 118.504 402.597C116.507 402.597 114.58 403.079 112.721 404.043C110.931 404.938 109.314 406.177 107.868 407.76C106.491 409.343 105.39 411.133 104.564 413.13V426.037C104.977 427.414 105.631 428.653 106.526 429.754C107.489 430.856 108.591 431.82 109.83 432.646C111.069 433.403 112.342 434.022 113.65 434.504C115.027 434.917 116.37 435.124 117.678 435.124ZM181.264 446.895C176.927 446.895 173.003 446.173 169.492 444.727C165.981 443.213 162.987 441.182 160.509 438.635C158.03 436.019 156.103 433.059 154.726 429.754C153.418 426.381 152.764 422.836 152.764 419.119C152.764 413.956 153.9 409.24 156.172 404.972C158.512 400.704 161.817 397.296 166.085 394.749C170.422 392.133 175.516 390.825 181.367 390.825C187.287 390.825 192.347 392.133 196.546 394.749C200.745 397.296 203.947 400.704 206.149 404.972C208.421 409.171 209.557 413.715 209.557 418.602C209.557 419.428 209.523 420.289 209.454 421.184C209.385 422.01 209.316 422.698 209.247 423.249H167.427C167.702 426.003 168.494 428.412 169.802 430.477C171.179 432.542 172.9 434.126 174.965 435.227C177.099 436.26 179.371 436.776 181.78 436.776C184.534 436.776 187.115 436.122 189.525 434.814C192.003 433.437 193.689 431.647 194.584 429.445L206.459 432.749C205.151 435.502 203.258 437.946 200.78 440.08C198.371 442.214 195.514 443.901 192.209 445.14C188.905 446.31 185.257 446.895 181.264 446.895ZM167.117 414.472H195.41C195.135 411.718 194.343 409.343 193.035 407.347C191.796 405.282 190.144 403.698 188.079 402.597C186.014 401.427 183.708 400.842 181.161 400.842C178.682 400.842 176.411 401.427 174.345 402.597C172.349 403.698 170.697 405.282 169.389 407.347C168.15 409.343 167.393 411.718 167.117 414.472ZM249.906 443.075C248.735 443.557 247.324 444.107 245.672 444.727C244.02 445.347 242.23 445.828 240.303 446.173C238.444 446.586 236.551 446.792 234.623 446.792C232.076 446.792 229.736 446.345 227.602 445.45C225.468 444.555 223.747 443.144 222.439 441.216C221.2 439.22 220.58 436.638 220.58 433.472V402.391H213.455V391.755H220.58V374.201H234.417V391.755H245.775V402.391H234.417V428.825C234.486 430.684 235.002 432.026 235.966 432.852C236.929 433.678 238.134 434.091 239.58 434.091C241.025 434.091 242.437 433.85 243.813 433.368C245.19 432.887 246.292 432.474 247.118 432.129L249.906 443.075ZM289.334 443.075C288.164 443.557 286.753 444.107 285.1 444.727C283.448 445.347 281.658 445.828 279.731 446.173C277.872 446.586 275.979 446.792 274.052 446.792C271.505 446.792 269.164 446.345 267.03 445.45C264.896 444.555 263.175 443.144 261.867 441.216C260.628 439.22 260.008 436.638 260.008 433.472V402.391H252.883V391.755H260.008V374.201H273.845V391.755H285.204V402.391H273.845V428.825C273.914 430.684 274.43 432.026 275.394 432.852C276.358 433.678 277.562 434.091 279.008 434.091C280.454 434.091 281.865 433.85 283.242 433.368C284.619 432.887 285.72 432.474 286.546 432.129L289.334 443.075ZM321.028 446.895C316.691 446.895 312.767 446.173 309.256 444.727C305.745 443.213 302.751 441.182 300.272 438.635C297.794 436.019 295.867 433.059 294.49 429.754C293.182 426.381 292.528 422.836 292.528 419.119C292.528 413.956 293.664 409.24 295.935 404.972C298.276 400.704 301.58 397.296 305.848 394.749C310.185 392.133 315.279 390.825 321.131 390.825C327.051 390.825 332.111 392.133 336.31 394.749C340.509 397.296 343.71 400.704 345.913 404.972C348.185 409.171 349.321 413.715 349.321 418.602C349.321 419.428 349.286 420.289 349.218 421.184C349.149 422.01 349.08 422.698 349.011 423.249H307.191C307.466 426.003 308.258 428.412 309.566 430.477C310.943 432.542 312.664 434.126 314.729 435.227C316.863 436.26 319.134 436.776 321.544 436.776C324.297 436.776 326.879 436.122 329.288 434.814C331.767 433.437 333.453 431.647 334.348 429.445L346.223 432.749C344.915 435.502 343.022 437.946 340.544 440.08C338.134 442.214 335.277 443.901 331.973 445.14C328.669 446.31 325.02 446.895 321.028 446.895ZM306.881 414.472H335.174C334.899 411.718 334.107 409.343 332.799 407.347C331.56 405.282 329.908 403.698 327.843 402.597C325.778 401.427 323.471 400.842 320.924 400.842C318.446 400.842 316.174 401.427 314.109 402.597C312.113 403.698 310.461 405.282 309.153 407.347C307.914 409.343 307.156 411.718 306.881 414.472ZM389.967 403.733C385.768 403.733 382.016 404.559 378.712 406.211C375.408 407.794 373.033 410.101 371.587 413.13V445.863H357.75V391.755H370.451V403.32C372.379 399.602 374.822 396.677 377.783 394.543C380.743 392.409 383.875 391.238 387.179 391.032C387.936 391.032 388.522 391.032 388.935 391.032C389.348 391.032 389.692 391.066 389.967 391.135V403.733ZM420.067 370.483H433.903V428.515C433.903 430.993 434.316 432.68 435.143 433.575C435.969 434.401 437.104 434.814 438.55 434.814C439.652 434.814 440.787 434.676 441.958 434.401C443.128 434.126 444.161 433.781 445.055 433.368L446.914 443.901C445.055 444.796 442.887 445.484 440.409 445.966C437.931 446.448 435.693 446.689 433.697 446.689C429.36 446.689 425.987 445.553 423.577 443.281C421.237 440.941 420.067 437.637 420.067 433.368V370.483ZM452.943 445.863V391.755H466.78V445.863H452.943ZM452.943 384.217V370.483H466.78V384.217H452.943ZM482.566 445.863V405.179H475.441V394.646H482.566V391.342C482.566 386.867 483.289 383.012 484.735 379.777C486.249 376.472 488.349 373.925 491.034 372.135C493.787 370.346 496.988 369.451 500.637 369.451C502.84 369.451 505.042 369.726 507.245 370.277C509.517 370.827 511.754 371.619 513.957 372.652L511.169 383.081C510.137 382.53 508.932 382.083 507.555 381.739C506.178 381.326 504.87 381.119 503.631 381.119C501.291 381.119 499.501 381.945 498.262 383.597C497.023 385.249 496.403 387.659 496.403 390.825V394.646H509.62V405.179H496.403V445.863H482.566ZM541.866 446.895C537.529 446.895 533.606 446.173 530.095 444.727C526.584 443.213 523.589 441.182 521.111 438.635C518.633 436.019 516.705 433.059 515.329 429.754C514.021 426.381 513.367 422.836 513.367 419.119C513.367 413.956 514.503 409.24 516.774 404.972C519.115 400.704 522.419 397.296 526.687 394.749C531.024 392.133 536.118 390.825 541.97 390.825C547.89 390.825 552.95 392.133 557.149 394.749C561.348 397.296 564.549 400.704 566.752 404.972C569.024 409.171 570.16 413.715 570.16 418.602C570.16 419.428 570.125 420.289 570.056 421.184C569.987 422.01 569.919 422.698 569.85 423.249H528.03C528.305 426.003 529.097 428.412 530.405 430.477C531.781 432.542 533.502 434.126 535.568 435.227C537.702 436.26 539.973 436.776 542.383 436.776C545.136 436.776 547.718 436.122 550.127 434.814C552.605 433.437 554.292 431.647 555.187 429.445L567.062 432.749C565.754 435.502 563.861 437.946 561.382 440.08C558.973 442.214 556.116 443.901 552.812 445.14C549.508 446.31 545.859 446.895 541.866 446.895ZM527.72 414.472H556.013C555.738 411.718 554.946 409.343 553.638 407.347C552.399 405.282 550.747 403.698 548.682 402.597C546.616 401.427 544.31 400.842 541.763 400.842C539.285 400.842 537.013 401.427 534.948 402.597C532.952 403.698 531.299 405.282 529.992 407.347C528.752 409.343 527.995 411.718 527.72 414.472Z" fill="white"/>
<path d="M41.2502 34.4664H32.2268V9.01182H41.3248C43.8851 9.01182 46.0892 9.52141 47.937 10.5406C49.7848 11.5515 51.2058 13.0057 52.2001 14.9032C53.2027 16.8006 53.704 19.071 53.704 21.7142C53.704 24.3658 53.2027 26.6444 52.2001 28.5502C51.2058 30.456 49.7765 31.9184 47.9121 32.9376C46.0561 33.9568 43.8354 34.4664 41.2502 34.4664ZM37.6085 29.8552H41.0265C42.6174 29.8552 43.9556 29.5735 45.041 29.01C46.1348 28.4383 46.9551 27.5559 47.502 26.3627C48.0571 25.1612 48.3347 23.6117 48.3347 21.7142C48.3347 19.8333 48.0571 18.2963 47.502 17.1031C46.9551 15.9099 46.1389 15.0316 45.0535 14.4681C43.968 13.9047 42.6298 13.623 41.0389 13.623H37.6085V29.8552ZM57.5912 34.4664V15.3755H62.8859V34.4664H57.5912ZM60.251 12.9145C59.4638 12.9145 58.7885 12.6535 58.2251 12.1315C57.6699 11.6012 57.3923 10.9673 57.3923 10.2299C57.3923 9.5007 57.6699 8.8751 58.2251 8.35309C58.7885 7.82278 59.4638 7.55763 60.251 7.55763C61.0382 7.55763 61.7093 7.82278 62.2645 8.35309C62.8279 8.8751 63.1097 9.5007 63.1097 10.2299C63.1097 10.9673 62.8279 11.6012 62.2645 12.1315C61.7093 12.6535 61.0382 12.9145 60.251 12.9145ZM75.8276 34.8392C73.8638 34.8392 72.1735 34.4415 70.7566 33.6461C69.348 32.8423 68.2625 31.7071 67.5002 30.2405C66.7379 28.7656 66.3567 27.0214 66.3567 25.0079C66.3567 23.0441 66.7379 21.3207 67.5002 19.8375C68.2625 18.3543 69.3355 17.1984 70.7193 16.3698C72.1114 15.5412 73.7437 15.1269 75.6163 15.1269C76.8758 15.1269 78.0483 15.3299 79.1337 15.7359C80.2275 16.1336 81.1804 16.7344 81.9924 17.5381C82.8127 18.3418 83.4507 19.3527 83.9065 20.5708C84.3622 21.7805 84.59 23.1974 84.59 24.8215V26.2757H68.4697V22.9944H79.606C79.606 22.2321 79.4403 21.5568 79.1089 20.9685C78.7774 20.3802 78.3176 19.9203 77.7292 19.5889C77.1492 19.2492 76.4739 19.0793 75.7033 19.0793C74.8996 19.0793 74.187 19.2657 73.5655 19.6386C72.9524 20.0032 72.4718 20.4962 72.1238 21.1176C71.7758 21.7308 71.5976 22.4144 71.5893 23.1684V26.2881C71.5893 27.2327 71.7633 28.0489 72.1114 28.7366C72.4676 29.4243 72.9689 29.9547 73.6153 30.3275C74.2616 30.7004 75.028 30.8868 75.9146 30.8868C76.5029 30.8868 77.0415 30.804 77.5304 30.6382C78.0193 30.4725 78.4377 30.2239 78.7857 29.8925C79.1337 29.5611 79.3989 29.1551 79.5812 28.6745L84.4782 28.9976C84.2296 30.1742 83.72 31.2017 82.9494 32.08C82.1871 32.95 81.2011 33.6295 79.9913 34.1184C78.7899 34.5989 77.402 34.8392 75.8276 34.8392ZM98.1998 15.3755V19.3527H86.703V15.3755H98.1998ZM89.3131 10.8016H94.6078V28.5999C94.6078 29.0888 94.6824 29.4699 94.8315 29.7434C94.9807 30.0085 95.1878 30.1949 95.453 30.3027C95.7264 30.4104 96.0413 30.4642 96.3976 30.4642C96.6462 30.4642 96.8947 30.4435 97.1433 30.4021C97.3919 30.3524 97.5825 30.3151 97.715 30.2902L98.5478 34.2302C98.2826 34.3131 97.9098 34.4084 97.4292 34.5161C96.9486 34.6321 96.3644 34.7025 95.6767 34.7274C94.4006 34.7771 93.282 34.6072 92.3209 34.2178C91.368 33.8283 90.6264 33.2235 90.0961 32.4032C89.5658 31.5828 89.3048 30.5471 89.3131 29.2959V10.8016ZM109.849 34.4664V9.01182H119.891C121.822 9.01182 123.467 9.38055 124.826 10.118C126.185 10.8472 127.22 11.8622 127.933 13.1631C128.654 14.4557 129.014 15.9472 129.014 17.6375C129.014 19.3279 128.65 20.8194 127.921 22.112C127.191 23.4046 126.135 24.4113 124.751 25.1322C123.376 25.8531 121.71 26.2135 119.755 26.2135H113.354V21.9007H118.885C119.92 21.9007 120.774 21.7225 121.445 21.3662C122.125 21.0016 122.63 20.5003 122.961 19.8623C123.301 19.216 123.471 18.4744 123.471 17.6375C123.471 16.7924 123.301 16.0549 122.961 15.4252C122.63 14.7872 122.125 14.2941 121.445 13.9461C120.766 13.5898 119.904 13.4117 118.86 13.4117H115.231V34.4664H109.849ZM137.705 9.01182V34.4664H132.411V9.01182H137.705ZM147.391 34.8268C146.173 34.8268 145.087 34.6155 144.134 34.1929C143.181 33.7621 142.427 33.1282 141.872 32.2913C141.325 31.4461 141.052 30.3938 141.052 29.1343C141.052 28.0737 141.247 27.183 141.636 26.4621C142.025 25.7412 142.556 25.1612 143.227 24.7221C143.898 24.2829 144.66 23.9515 145.514 23.7277C146.376 23.504 147.279 23.3466 148.223 23.2554C149.334 23.1394 150.229 23.0317 150.908 22.9323C151.587 22.8246 152.08 22.6671 152.387 22.46C152.694 22.2528 152.847 21.9462 152.847 21.5402V21.4657C152.847 20.6785 152.598 20.0695 152.101 19.6386C151.612 19.2077 150.916 18.9923 150.013 18.9923C149.06 18.9923 148.302 19.2036 147.739 19.6262C147.175 20.0405 146.802 20.5625 146.62 21.1922L141.723 20.7945C141.972 19.6345 142.46 18.6319 143.19 17.7867C143.919 16.9332 144.859 16.2786 146.011 15.8229C147.171 15.3589 148.513 15.1269 150.038 15.1269C151.099 15.1269 152.114 15.2512 153.083 15.4997C154.061 15.7483 154.927 16.1336 155.681 16.6556C156.443 17.1777 157.044 17.8488 157.483 18.6691C157.922 19.4812 158.142 20.4548 158.142 21.5899V34.4664H153.12V31.819H152.971C152.665 32.4156 152.254 32.9417 151.741 33.3975C151.227 33.8449 150.61 34.1971 149.889 34.4539C149.168 34.7025 148.335 34.8268 147.391 34.8268ZM148.907 31.1727C149.686 31.1727 150.374 31.0194 150.97 30.7128C151.567 30.398 152.035 29.9754 152.375 29.4451C152.714 28.9148 152.884 28.314 152.884 27.6429V25.6169C152.718 25.7247 152.491 25.8241 152.201 25.9152C151.919 25.9981 151.6 26.0768 151.244 26.1514C150.887 26.2177 150.531 26.2798 150.175 26.3378C149.818 26.3875 149.495 26.4331 149.205 26.4745C148.584 26.5657 148.041 26.7107 147.577 26.9096C147.113 27.1084 146.753 27.3777 146.496 27.7174C146.239 28.0489 146.11 28.4632 146.11 28.9603C146.11 29.6812 146.371 30.2322 146.893 30.6134C147.424 30.9863 148.095 31.1727 148.907 31.1727ZM167.544 23.4294V34.4664H162.249V15.3755H167.296V18.7437H167.519C167.942 17.6334 168.65 16.7551 169.645 16.1088C170.639 15.4542 171.845 15.1269 173.261 15.1269C174.587 15.1269 175.743 15.4169 176.729 15.9969C177.715 16.5769 178.482 17.4055 179.029 18.4827C179.575 19.5516 179.849 20.8276 179.849 22.3108V34.4664H174.554V23.2554C174.562 22.0871 174.264 21.1756 173.659 20.5211C173.054 19.8582 172.222 19.5267 171.161 19.5267C170.448 19.5267 169.819 19.68 169.272 19.9866C168.733 20.2932 168.311 20.7406 168.004 21.3289C167.706 21.909 167.552 22.6091 167.544 23.4294ZM189.317 23.4294V34.4664H184.022V15.3755H189.068V18.7437H189.292C189.714 17.6334 190.423 16.7551 191.417 16.1088C192.411 15.4542 193.617 15.1269 195.034 15.1269C196.36 15.1269 197.516 15.4169 198.502 15.9969C199.488 16.5769 200.254 17.4055 200.801 18.4827C201.348 19.5516 201.621 20.8276 201.621 22.3108V34.4664H196.327V23.2554C196.335 22.0871 196.037 21.1756 195.432 20.5211C194.827 19.8582 193.994 19.5267 192.933 19.5267C192.221 19.5267 191.591 19.68 191.044 19.9866C190.506 20.2932 190.083 20.7406 189.776 21.3289C189.478 21.909 189.325 22.6091 189.317 23.4294ZM214.495 34.8392C212.531 34.8392 210.84 34.4415 209.424 33.6461C208.015 32.8423 206.93 31.7071 206.167 30.2405C205.405 28.7656 205.024 27.0214 205.024 25.0079C205.024 23.0441 205.405 21.3207 206.167 19.8375C206.93 18.3543 208.003 17.1984 209.386 16.3698C210.778 15.5412 212.411 15.1269 214.283 15.1269C215.543 15.1269 216.715 15.3299 217.801 15.7359C218.894 16.1336 219.847 16.7344 220.659 17.5381C221.48 18.3418 222.118 19.3527 222.573 20.5708C223.029 21.7805 223.257 23.1974 223.257 24.8215V26.2757H207.137V22.9944H218.273C218.273 22.2321 218.107 21.5568 217.776 20.9685C217.444 20.3802 216.985 19.9203 216.396 19.5889C215.816 19.2492 215.141 19.0793 214.37 19.0793C213.567 19.0793 212.854 19.2657 212.233 19.6386C211.619 20.0032 211.139 20.4962 210.791 21.1176C210.443 21.7308 210.265 22.4144 210.256 23.1684V26.2881C210.256 27.2327 210.43 28.0489 210.778 28.7366C211.135 29.4243 211.636 29.9547 212.282 30.3275C212.929 30.7004 213.695 30.8868 214.582 30.8868C215.17 30.8868 215.709 30.804 216.197 30.6382C216.686 30.4725 217.105 30.2239 217.453 29.8925C217.801 29.5611 218.066 29.1551 218.248 28.6745L223.145 28.9976C222.897 30.1742 222.387 31.2017 221.616 32.08C220.854 32.95 219.868 33.6295 218.658 34.1184C217.457 34.5989 216.069 34.8392 214.495 34.8392ZM226.712 34.4664V15.3755H231.845V18.7064H232.044C232.392 17.5215 232.976 16.6266 233.797 16.0218C234.617 15.4086 235.562 15.102 236.631 15.102C236.896 15.102 237.182 15.1186 237.488 15.1517C237.795 15.1849 238.064 15.2305 238.296 15.2885V19.9866C238.048 19.912 237.704 19.8457 237.264 19.7877C236.825 19.7297 236.423 19.7007 236.059 19.7007C235.28 19.7007 234.584 19.8706 233.971 20.2103C233.366 20.5418 232.885 21.0058 232.529 21.6024C232.181 22.199 232.007 22.8867 232.007 23.6656V34.4664H226.712Z" fill="white"/>
<path d="M5.87708 3.97327V38.9594" stroke="white" stroke-width="3"/>
</svg>
