<svg width="573" height="373" viewBox="0 0 573 373" fill="none" xmlns="http://www.w3.org/2000/svg">
<path d="M7.06702 346.863L568.571 346.804" stroke="#31346F" stroke-width="25.6284"/>
<path d="M7.06702 228.756L453.681 228.253" stroke="#31346F" stroke-width="25.6284"/>
<path d="M0.327637 99.3662L370.35 102.93" stroke="#31346F" stroke-width="25.6284"/>
<path d="M69.615 25.5484V98.8629H55.4684V67.5752H22.2187V98.8629H7.96886V25.5484H22.2187V55.184H55.4684V25.5484H69.615ZM107.752 99.8955C103.415 99.8955 99.4909 99.1727 95.9801 97.727C92.4693 96.2125 89.4747 94.1818 86.9965 91.6347C84.5182 89.0188 82.5907 86.0587 81.2139 82.7544C79.906 79.3812 79.252 75.8359 79.252 72.1186C79.252 66.9556 80.3879 62.2401 82.6596 57.972C85.0001 53.7039 88.3044 50.2964 92.5725 47.7493C96.9094 45.1334 102.004 43.8254 107.855 43.8254C113.775 43.8254 118.835 45.1334 123.034 47.7493C127.233 50.2964 130.434 53.7039 132.637 57.972C134.909 62.1712 136.045 66.7147 136.045 71.6023C136.045 72.4284 136.01 73.2889 135.942 74.1838C135.873 75.0099 135.804 75.6983 135.735 76.249H93.9149C94.1903 79.0026 94.9819 81.412 96.2899 83.4772C97.6667 85.5424 99.3877 87.1257 101.453 88.2271C103.587 89.2597 105.859 89.776 108.268 89.776C111.022 89.776 113.603 89.122 116.012 87.8141C118.491 86.4373 120.177 84.6475 121.072 82.4446L132.947 85.7489C131.639 88.5025 129.746 90.9463 127.268 93.0803C124.858 95.2144 122.002 96.9009 118.697 98.1401C115.393 99.3103 111.744 99.8955 107.752 99.8955ZM93.6051 67.4719H121.898C121.623 64.7183 120.831 62.3433 119.523 60.347C118.284 58.2818 116.632 56.6985 114.567 55.597C112.502 54.4267 110.196 53.8416 107.648 53.8416C105.17 53.8416 102.898 54.4267 100.833 55.597C98.8369 56.6985 97.1848 58.2818 95.8768 60.347C94.6377 62.3433 93.8805 64.7183 93.6051 67.4719ZM140.757 82.8576C140.757 79.3468 141.721 76.2834 143.648 73.6675C145.645 70.9827 148.398 68.9175 151.909 67.4719C155.42 66.0263 159.447 65.3034 163.99 65.3034C166.262 65.3034 168.568 65.4755 170.909 65.8197C173.249 66.1639 175.28 66.7147 177.001 67.4719V64.5806C177.001 61.1386 175.969 58.4883 173.903 56.6296C171.907 54.7709 168.912 53.8416 164.92 53.8416C161.96 53.8416 159.137 54.3579 156.452 55.3905C153.768 56.4231 150.945 57.9376 147.985 59.9339L143.545 50.8471C147.125 48.5065 150.773 46.7511 154.49 45.5808C158.277 44.4105 162.235 43.8254 166.365 43.8254C174.075 43.8254 180.064 45.7529 184.333 49.608C188.669 53.463 190.838 58.9702 190.838 66.1295V83.3739C190.838 84.8196 191.079 85.8521 191.561 86.4717C192.111 87.0913 192.972 87.4699 194.142 87.6076V98.8629C192.903 99.0694 191.767 99.2415 190.735 99.3792C189.771 99.5169 188.945 99.5857 188.256 99.5857C185.503 99.5857 183.403 98.9661 181.958 97.727C180.581 96.4879 179.72 94.9734 179.376 93.1836L179.066 90.3956C176.726 93.4245 173.8 95.7651 170.289 97.4172C166.778 99.0694 163.199 99.8955 159.55 99.8955C155.971 99.8955 152.735 99.1727 149.844 97.727C147.021 96.2125 144.784 94.1818 143.132 91.6347C141.549 89.0188 140.757 86.0931 140.757 82.8576ZM174.42 85.6456C175.177 84.8196 175.796 83.9935 176.278 83.1674C176.76 82.3413 177.001 81.5841 177.001 80.8957V75.4229C175.349 74.7345 173.559 74.2182 171.632 73.874C169.704 73.461 167.88 73.2545 166.159 73.2545C162.579 73.2545 159.619 74.0461 157.278 75.6294C155.007 77.1439 153.871 79.1747 153.871 81.7218C153.871 83.0986 154.25 84.4065 155.007 85.6456C155.764 86.8847 156.865 87.8829 158.311 88.6402C159.757 89.3974 161.478 89.776 163.474 89.776C165.539 89.776 167.57 89.3974 169.566 88.6402C171.563 87.8141 173.181 86.8159 174.42 85.6456ZM203.665 23.4832H217.502V81.5152C217.502 83.9935 217.915 85.6801 218.741 86.575C219.567 87.401 220.703 87.8141 222.148 87.8141C223.25 87.8141 224.386 87.6764 225.556 87.401C226.726 87.1257 227.759 86.7815 228.654 86.3684L230.512 96.9009C228.654 97.7959 226.485 98.4843 224.007 98.9661C221.529 99.448 219.291 99.689 217.295 99.689C212.958 99.689 209.585 98.5531 207.176 96.2814C204.835 93.9408 203.665 90.6365 203.665 86.3684V23.4832ZM268.359 96.0749C267.189 96.5567 265.778 97.1075 264.126 97.727C262.474 98.3466 260.684 98.8285 258.756 99.1727C256.898 99.5857 255.004 99.7922 253.077 99.7922C250.53 99.7922 248.189 99.3448 246.055 98.4498C243.921 97.5549 242.2 96.1437 240.892 94.2162C239.653 92.2198 239.034 89.6383 239.034 86.4717V55.3905H231.909V44.7547H239.034V27.2006H252.87V44.7547H264.229V55.3905H252.87V81.825C252.939 83.6837 253.456 85.0261 254.419 85.8521C255.383 86.6782 256.588 87.0913 258.033 87.0913C259.479 87.0913 260.89 86.8503 262.267 86.3684C263.644 85.8866 264.745 85.4735 265.571 85.1293L268.359 96.0749ZM325.853 98.8629H312.017V68.5045C312.017 64.3053 311.19 61.1731 309.538 59.1079C307.955 57.0427 305.752 56.0101 302.93 56.0101C301.278 56.0101 299.522 56.4919 297.663 57.4557C295.805 58.4195 294.118 59.7618 292.604 61.4828C291.158 63.135 290.091 65.0625 289.403 67.2654V98.8629H275.566V23.4832H289.403V54.7709C291.399 51.329 294.118 48.6442 297.56 46.7167C301.002 44.7892 304.754 43.8254 308.815 43.8254C312.326 43.8254 315.183 44.445 317.386 45.6841C319.589 46.8544 321.31 48.4721 322.549 50.5373C323.788 52.5337 324.649 54.8054 325.131 57.3524C325.612 59.8307 325.853 62.4122 325.853 65.0969V98.8629ZM338.012 109.395C339.251 109.671 340.387 109.912 341.42 110.118C342.521 110.325 343.451 110.428 344.208 110.428C345.516 110.428 346.583 110.084 347.409 109.395C348.304 108.776 349.164 107.606 349.99 105.885C350.816 104.232 351.677 101.892 352.572 98.8629L331.197 44.7547H345.55L360.11 84.7163L372.914 44.7547H386.131L363.414 109.602C362.588 112.011 361.314 114.18 359.593 116.107C357.941 118.104 355.842 119.653 353.295 120.754C350.816 121.924 348.028 122.509 344.931 122.509C343.829 122.509 342.728 122.406 341.626 122.2C340.525 122.062 339.32 121.787 338.012 121.374V109.395ZM56.914 222.863H43.0772V192.505C43.0772 188.305 42.2511 185.173 40.599 183.108C39.0156 181.043 36.8128 180.01 33.9903 180.01C32.3382 180.01 30.5828 180.492 28.7241 181.456C26.8654 182.419 25.1788 183.762 23.6644 185.483C22.2187 187.135 21.1517 189.063 20.4633 191.265V222.863H6.62648V147.483H20.4633V178.771C22.4597 175.329 25.1788 172.644 28.6208 170.717C32.0628 168.789 35.8146 167.825 39.8761 167.825C43.387 167.825 46.2438 168.445 48.4467 169.684C50.6496 170.854 52.3706 172.472 53.6097 174.537C54.8488 176.534 55.7093 178.805 56.1912 181.352C56.6731 183.831 56.914 186.412 56.914 189.097V222.863ZM65.228 206.858C65.228 203.347 66.1918 200.283 68.1193 197.667C70.1157 194.983 72.8693 192.918 76.3801 191.472C79.8909 190.026 83.9181 189.303 88.4615 189.303C90.7332 189.303 93.0393 189.476 95.3799 189.82C97.7204 190.164 99.7512 190.715 101.472 191.472V188.581C101.472 185.139 100.44 182.488 98.3744 180.63C96.3781 178.771 93.3835 177.842 89.3908 177.842C86.4307 177.842 83.6083 178.358 80.9235 179.391C78.2388 180.423 75.4163 181.938 72.4562 183.934L68.016 174.847C71.5957 172.507 75.2442 170.751 78.9616 169.581C82.7478 168.411 86.7061 167.825 90.8365 167.825C98.5465 167.825 104.536 169.753 108.804 173.608C113.141 177.463 115.309 182.97 115.309 190.13V207.374C115.309 208.82 115.55 209.852 116.032 210.472C116.583 211.091 117.443 211.47 118.613 211.608V222.863C117.374 223.069 116.238 223.242 115.206 223.379C114.242 223.517 113.416 223.586 112.728 223.586C109.974 223.586 107.874 222.966 106.429 221.727C105.052 220.488 104.191 218.973 103.847 217.184L103.537 214.396C101.197 217.425 98.2712 219.765 94.7603 221.417C91.2495 223.069 87.6698 223.895 84.0213 223.895C80.4416 223.895 77.2062 223.173 74.3149 221.727C71.4925 220.213 69.2552 218.182 67.603 215.635C66.0197 213.019 65.228 210.093 65.228 206.858ZM98.8907 209.646C99.648 208.82 100.268 207.993 100.749 207.167C101.231 206.341 101.472 205.584 101.472 204.896V199.423C99.8201 198.735 98.0302 198.218 96.1027 197.874C94.1752 197.461 92.3509 197.254 90.6299 197.254C87.0503 197.254 84.0902 198.046 81.7496 199.629C79.4779 201.144 78.342 203.175 78.342 205.722C78.342 207.099 78.7206 208.407 79.4779 209.646C80.2351 210.885 81.3366 211.883 82.7822 212.64C84.2278 213.397 85.9488 213.776 87.9452 213.776C90.0104 213.776 92.0412 213.397 94.0375 212.64C96.0339 211.814 97.6516 210.816 98.8907 209.646ZM159.011 223.895C154.88 223.895 151.197 222.966 147.962 221.107C144.726 219.249 142.179 216.702 140.32 213.466V222.863H128.239V147.483H142.076V178.255C144.003 175.019 146.516 172.472 149.614 170.613C152.781 168.755 156.463 167.825 160.663 167.825C164.174 167.825 167.375 168.583 170.266 170.097C173.157 171.543 175.635 173.574 177.701 176.189C179.835 178.805 181.452 181.8 182.554 185.173C183.724 188.546 184.309 192.16 184.309 196.015C184.309 199.87 183.655 203.484 182.347 206.858C181.108 210.231 179.353 213.225 177.081 215.841C174.809 218.388 172.125 220.385 169.027 221.83C165.998 223.207 162.659 223.895 159.011 223.895ZM155.19 212.124C157.393 212.124 159.389 211.711 161.179 210.885C163.038 209.99 164.621 208.82 165.929 207.374C167.306 205.928 168.338 204.242 169.027 202.314C169.784 200.318 170.163 198.253 170.163 196.119C170.163 193.158 169.543 190.439 168.304 187.961C167.134 185.414 165.481 183.383 163.347 181.869C161.282 180.354 158.838 179.597 156.016 179.597C154.02 179.597 152.092 180.079 150.233 181.043C148.444 181.938 146.826 183.177 145.38 184.76C144.003 186.343 142.902 188.133 142.076 190.13V203.037C142.489 204.414 143.143 205.653 144.038 206.754C145.002 207.856 146.103 208.82 147.342 209.646C148.581 210.403 149.855 211.022 151.163 211.504C152.54 211.917 153.882 212.124 155.19 212.124ZM193.684 222.863V168.755H207.521V222.863H193.684ZM193.684 161.217V147.483H207.521V161.217H193.684ZM252.427 220.075C251.256 220.557 249.845 221.107 248.193 221.727C246.541 222.347 244.751 222.828 242.824 223.173C240.965 223.586 239.072 223.792 237.144 223.792C234.597 223.792 232.257 223.345 230.123 222.45C227.989 221.555 226.268 220.144 224.96 218.216C223.721 216.22 223.101 213.638 223.101 210.472V179.391H215.976V168.755H223.101V151.201H236.938V168.755H248.296V179.391H236.938V205.825C237.007 207.684 237.523 209.026 238.487 209.852C239.45 210.678 240.655 211.091 242.101 211.091C243.546 211.091 244.958 210.85 246.334 210.368C247.711 209.887 248.813 209.474 249.639 209.129L252.427 220.075ZM279.562 223.895C274.95 223.895 270.544 223.138 266.345 221.624C262.146 220.109 258.532 217.872 255.503 214.912L260.459 205.928C263.695 208.544 266.861 210.472 269.959 211.711C273.126 212.95 276.155 213.57 279.046 213.57C281.731 213.57 283.865 213.088 285.448 212.124C287.1 211.16 287.926 209.714 287.926 207.787C287.926 206.479 287.479 205.481 286.584 204.792C285.689 204.035 284.381 203.381 282.66 202.83C281.008 202.28 278.977 201.66 276.568 200.972C272.575 199.664 269.236 198.39 266.552 197.151C263.867 195.912 261.836 194.363 260.459 192.505C259.151 190.577 258.497 188.133 258.497 185.173C258.497 181.593 259.392 178.53 261.182 175.983C263.041 173.367 265.588 171.336 268.823 169.891C272.128 168.445 275.983 167.722 280.388 167.722C284.243 167.722 287.892 168.342 291.334 169.581C294.776 170.751 297.908 172.679 300.731 175.363L295.155 184.14C292.401 182.006 289.785 180.458 287.307 179.494C284.829 178.461 282.316 177.945 279.769 177.945C278.323 177.945 276.946 178.117 275.638 178.461C274.399 178.805 273.367 179.391 272.541 180.217C271.783 180.974 271.405 182.075 271.405 183.521C271.405 184.829 271.749 185.861 272.437 186.619C273.195 187.307 274.296 187.927 275.742 188.477C277.256 189.028 279.08 189.648 281.214 190.336C285.551 191.575 289.2 192.849 292.16 194.157C295.189 195.465 297.461 197.082 298.975 199.01C300.49 200.869 301.247 203.45 301.247 206.754C301.247 212.124 299.285 216.323 295.361 219.352C291.437 222.381 286.171 223.895 279.562 223.895ZM338.769 222.863V182.179H331.644V171.646H338.769V168.342C338.769 163.867 339.492 160.012 340.937 156.777C342.452 153.472 344.551 150.925 347.236 149.135C349.99 147.346 353.191 146.451 356.839 146.451C359.042 146.451 361.245 146.726 363.448 147.277C365.72 147.827 367.957 148.619 370.16 149.652L367.372 160.081C366.339 159.53 365.135 159.083 363.758 158.739C362.381 158.326 361.073 158.119 359.834 158.119C357.493 158.119 355.703 158.945 354.464 160.597C353.225 162.249 352.606 164.659 352.606 167.825V171.646H365.823V182.179H352.606V222.863H338.769ZM397.966 223.895C393.56 223.895 389.602 223.173 386.091 221.727C382.58 220.213 379.586 218.147 377.107 215.531C374.698 212.916 372.839 209.921 371.531 206.548C370.223 203.175 369.569 199.629 369.569 195.912C369.569 192.126 370.223 188.546 371.531 185.173C372.839 181.8 374.698 178.805 377.107 176.189C379.586 173.574 382.58 171.543 386.091 170.097C389.602 168.583 393.56 167.825 397.966 167.825C402.372 167.825 406.295 168.583 409.737 170.097C413.248 171.543 416.243 173.574 418.721 176.189C421.199 178.805 423.058 181.8 424.297 185.173C425.605 188.546 426.259 192.126 426.259 195.912C426.259 199.629 425.605 203.175 424.297 206.548C423.058 209.921 421.199 212.916 418.721 215.531C416.312 218.147 413.351 220.213 409.841 221.727C406.33 223.173 402.372 223.895 397.966 223.895ZM383.819 195.912C383.819 199.079 384.439 201.901 385.678 204.379C386.917 206.789 388.604 208.682 390.738 210.059C392.872 211.435 395.281 212.124 397.966 212.124C400.582 212.124 402.957 211.435 405.091 210.059C407.225 208.613 408.911 206.686 410.15 204.276C411.458 201.798 412.112 198.975 412.112 195.809C412.112 192.711 411.458 189.923 410.15 187.445C408.911 184.967 407.225 183.039 405.091 181.662C402.957 180.285 400.582 179.597 397.966 179.597C395.281 179.597 392.872 180.32 390.738 181.765C388.604 183.142 386.917 185.07 385.678 187.548C384.439 189.957 383.819 192.745 383.819 195.912ZM467.815 180.733C463.616 180.733 459.864 181.559 456.56 183.211C453.256 184.794 450.881 187.101 449.435 190.13V222.863H435.598V168.755H448.299V180.32C450.227 176.602 452.671 173.677 455.631 171.543C458.591 169.409 461.723 168.238 465.027 168.032C465.785 168.032 466.37 168.032 466.783 168.032C467.196 168.032 467.54 168.066 467.815 168.135V180.733ZM2.90913 330.858C2.90913 327.347 3.87289 324.283 5.80041 321.667C7.79676 318.983 10.5504 316.918 14.0612 315.472C17.572 314.026 21.5992 313.303 26.1426 313.303C28.4143 313.303 30.7204 313.476 33.061 313.82C35.4015 314.164 37.4323 314.715 39.1533 315.472V312.581C39.1533 309.139 38.1207 306.488 36.0555 304.63C34.0592 302.771 31.0646 301.842 27.0719 301.842C24.1118 301.842 21.2894 302.358 18.6046 303.391C15.9199 304.423 13.0974 305.938 10.1373 307.934L5.69715 298.847C9.27682 296.507 12.9253 294.751 16.6427 293.581C20.4289 292.411 24.3872 291.825 28.5176 291.825C36.2276 291.825 42.2167 293.753 46.4848 297.608C50.8217 301.463 52.9901 306.97 52.9901 314.13V331.374C52.9901 332.82 53.2311 333.852 53.713 334.472C54.2637 335.091 55.1242 335.47 56.2945 335.608V346.863C55.0553 347.069 53.9195 347.242 52.8869 347.379C51.9231 347.517 51.097 347.586 50.4086 347.586C47.655 347.586 45.5554 346.966 44.1098 345.727C42.733 344.488 41.8725 342.973 41.5283 341.184L41.2185 338.396C38.878 341.425 35.9523 343.765 32.4414 345.417C28.9306 347.069 25.3509 347.895 21.7024 347.895C18.1227 347.895 14.8873 347.173 11.996 345.727C9.17356 344.213 6.93626 342.182 5.28411 339.635C3.70079 337.019 2.90913 334.093 2.90913 330.858ZM36.5718 333.646C37.3291 332.82 37.9486 331.993 38.4305 331.167C38.9124 330.341 39.1533 329.584 39.1533 328.896V323.423C37.5012 322.735 35.7113 322.218 33.7838 321.874C31.8563 321.461 30.032 321.254 28.311 321.254C24.7314 321.254 21.7713 322.046 19.4307 323.629C17.159 325.144 16.0231 327.175 16.0231 329.722C16.0231 331.099 16.4017 332.407 17.159 333.646C17.9162 334.885 19.0177 335.883 20.4633 336.64C21.9089 337.397 23.6299 337.776 25.6263 337.776C27.6915 337.776 29.7223 337.397 31.7186 336.64C33.715 335.814 35.3327 334.816 36.5718 333.646ZM121.498 347.895C117.368 347.895 113.685 346.966 110.449 345.107C107.214 343.249 104.667 340.702 102.808 337.466V346.863H90.7268V271.483H104.564V302.255C106.491 299.019 109.004 296.472 112.102 294.613C115.268 292.755 118.951 291.825 123.15 291.825C126.661 291.825 129.862 292.583 132.753 294.097C135.645 295.543 138.123 297.574 140.188 300.189C142.322 302.805 143.94 305.8 145.041 309.173C146.212 312.546 146.797 316.16 146.797 320.015C146.797 323.87 146.143 327.484 144.835 330.858C143.596 334.231 141.84 337.225 139.569 339.841C137.297 342.388 134.612 344.385 131.514 345.83C128.485 347.207 125.147 347.895 121.498 347.895ZM117.678 336.124C119.88 336.124 121.877 335.711 123.667 334.885C125.525 333.99 127.109 332.82 128.417 331.374C129.793 329.928 130.826 328.242 131.514 326.314C132.272 324.318 132.65 322.253 132.65 320.119C132.65 317.158 132.031 314.439 130.792 311.961C129.621 309.414 127.969 307.383 125.835 305.869C123.77 304.354 121.326 303.597 118.504 303.597C116.507 303.597 114.58 304.079 112.721 305.043C110.931 305.938 109.314 307.177 107.868 308.76C106.491 310.343 105.39 312.133 104.564 314.13V327.037C104.977 328.414 105.631 329.653 106.526 330.754C107.489 331.856 108.591 332.82 109.83 333.646C111.069 334.403 112.342 335.022 113.65 335.504C115.027 335.917 116.37 336.124 117.678 336.124ZM181.264 347.895C176.927 347.895 173.003 347.173 169.492 345.727C165.981 344.213 162.987 342.182 160.509 339.635C158.03 337.019 156.103 334.059 154.726 330.754C153.418 327.381 152.764 323.836 152.764 320.119C152.764 314.956 153.9 310.24 156.172 305.972C158.512 301.704 161.817 298.296 166.085 295.749C170.422 293.133 175.516 291.825 181.367 291.825C187.287 291.825 192.347 293.133 196.546 295.749C200.745 298.296 203.947 301.704 206.149 305.972C208.421 310.171 209.557 314.715 209.557 319.602C209.557 320.428 209.523 321.289 209.454 322.184C209.385 323.01 209.316 323.698 209.247 324.249H167.427C167.702 327.003 168.494 329.412 169.802 331.477C171.179 333.542 172.9 335.126 174.965 336.227C177.099 337.26 179.371 337.776 181.78 337.776C184.534 337.776 187.115 337.122 189.525 335.814C192.003 334.437 193.689 332.647 194.584 330.445L206.459 333.749C205.151 336.502 203.258 338.946 200.78 341.08C198.371 343.214 195.514 344.901 192.209 346.14C188.905 347.31 185.257 347.895 181.264 347.895ZM167.117 315.472H195.41C195.135 312.718 194.343 310.343 193.035 308.347C191.796 306.282 190.144 304.698 188.079 303.597C186.014 302.427 183.708 301.842 181.161 301.842C178.682 301.842 176.411 302.427 174.345 303.597C172.349 304.698 170.697 306.282 169.389 308.347C168.15 310.343 167.393 312.718 167.117 315.472ZM249.906 344.075C248.735 344.557 247.324 345.107 245.672 345.727C244.02 346.347 242.23 346.828 240.303 347.173C238.444 347.586 236.551 347.792 234.623 347.792C232.076 347.792 229.736 347.345 227.602 346.45C225.468 345.555 223.747 344.144 222.439 342.216C221.2 340.22 220.58 337.638 220.58 334.472V303.391H213.455V292.755H220.58V275.201H234.417V292.755H245.775V303.391H234.417V329.825C234.486 331.684 235.002 333.026 235.966 333.852C236.929 334.678 238.134 335.091 239.58 335.091C241.025 335.091 242.437 334.85 243.813 334.368C245.19 333.887 246.292 333.474 247.118 333.129L249.906 344.075ZM289.334 344.075C288.164 344.557 286.753 345.107 285.1 345.727C283.448 346.347 281.658 346.828 279.731 347.173C277.872 347.586 275.979 347.792 274.052 347.792C271.505 347.792 269.164 347.345 267.03 346.45C264.896 345.555 263.175 344.144 261.867 342.216C260.628 340.22 260.008 337.638 260.008 334.472V303.391H252.883V292.755H260.008V275.201H273.845V292.755H285.204V303.391H273.845V329.825C273.914 331.684 274.43 333.026 275.394 333.852C276.358 334.678 277.562 335.091 279.008 335.091C280.454 335.091 281.865 334.85 283.242 334.368C284.619 333.887 285.72 333.474 286.546 333.129L289.334 344.075ZM321.028 347.895C316.691 347.895 312.767 347.173 309.256 345.727C305.745 344.213 302.751 342.182 300.272 339.635C297.794 337.019 295.867 334.059 294.49 330.754C293.182 327.381 292.528 323.836 292.528 320.119C292.528 314.956 293.664 310.24 295.935 305.972C298.276 301.704 301.58 298.296 305.848 295.749C310.185 293.133 315.279 291.825 321.131 291.825C327.051 291.825 332.111 293.133 336.31 295.749C340.509 298.296 343.71 301.704 345.913 305.972C348.185 310.171 349.321 314.715 349.321 319.602C349.321 320.428 349.286 321.289 349.218 322.184C349.149 323.01 349.08 323.698 349.011 324.249H307.191C307.466 327.003 308.258 329.412 309.566 331.477C310.943 333.542 312.664 335.126 314.729 336.227C316.863 337.26 319.134 337.776 321.544 337.776C324.297 337.776 326.879 337.122 329.288 335.814C331.767 334.437 333.453 332.647 334.348 330.445L346.223 333.749C344.915 336.502 343.022 338.946 340.544 341.08C338.134 343.214 335.277 344.901 331.973 346.14C328.669 347.31 325.02 347.895 321.028 347.895ZM306.881 315.472H335.174C334.899 312.718 334.107 310.343 332.799 308.347C331.56 306.282 329.908 304.698 327.843 303.597C325.778 302.427 323.471 301.842 320.924 301.842C318.446 301.842 316.174 302.427 314.109 303.597C312.113 304.698 310.461 306.282 309.153 308.347C307.914 310.343 307.156 312.718 306.881 315.472ZM389.967 304.733C385.768 304.733 382.016 305.559 378.712 307.211C375.408 308.794 373.033 311.101 371.587 314.13V346.863H357.75V292.755H370.451V304.32C372.379 300.602 374.822 297.677 377.783 295.543C380.743 293.409 383.875 292.238 387.179 292.032C387.936 292.032 388.522 292.032 388.935 292.032C389.348 292.032 389.692 292.066 389.967 292.135V304.733ZM420.067 271.483H433.903V329.515C433.903 331.993 434.316 333.68 435.143 334.575C435.969 335.401 437.104 335.814 438.55 335.814C439.652 335.814 440.787 335.676 441.958 335.401C443.128 335.126 444.161 334.781 445.055 334.368L446.914 344.901C445.055 345.796 442.887 346.484 440.409 346.966C437.931 347.448 435.693 347.689 433.697 347.689C429.36 347.689 425.987 346.553 423.577 344.281C421.237 341.941 420.067 338.637 420.067 334.368V271.483ZM452.943 346.863V292.755H466.78V346.863H452.943ZM452.943 285.217V271.483H466.78V285.217H452.943ZM482.566 346.863V306.179H475.441V295.646H482.566V292.342C482.566 287.867 483.289 284.012 484.735 280.777C486.249 277.472 488.349 274.925 491.034 273.135C493.787 271.346 496.988 270.451 500.637 270.451C502.84 270.451 505.042 270.726 507.245 271.277C509.517 271.827 511.754 272.619 513.957 273.652L511.169 284.081C510.137 283.53 508.932 283.083 507.555 282.739C506.178 282.326 504.87 282.119 503.631 282.119C501.291 282.119 499.501 282.945 498.262 284.597C497.023 286.249 496.403 288.659 496.403 291.825V295.646H509.62V306.179H496.403V346.863H482.566ZM541.866 347.895C537.529 347.895 533.606 347.173 530.095 345.727C526.584 344.213 523.589 342.182 521.111 339.635C518.633 337.019 516.705 334.059 515.329 330.754C514.021 327.381 513.367 323.836 513.367 320.119C513.367 314.956 514.503 310.24 516.774 305.972C519.115 301.704 522.419 298.296 526.687 295.749C531.024 293.133 536.118 291.825 541.97 291.825C547.89 291.825 552.95 293.133 557.149 295.749C561.348 298.296 564.549 301.704 566.752 305.972C569.024 310.171 570.16 314.715 570.16 319.602C570.16 320.428 570.125 321.289 570.056 322.184C569.987 323.01 569.919 323.698 569.85 324.249H528.03C528.305 327.003 529.097 329.412 530.405 331.477C531.781 333.542 533.502 335.126 535.568 336.227C537.702 337.26 539.973 337.776 542.383 337.776C545.136 337.776 547.718 337.122 550.127 335.814C552.605 334.437 554.292 332.647 555.187 330.445L567.062 333.749C565.754 336.502 563.861 338.946 561.382 341.08C558.973 343.214 556.116 344.901 552.812 346.14C549.508 347.31 545.859 347.895 541.866 347.895ZM527.72 315.472H556.013C555.738 312.718 554.946 310.343 553.638 308.347C552.399 306.282 550.747 304.698 548.682 303.597C546.616 302.427 544.31 301.842 541.763 301.842C539.285 301.842 537.013 302.427 534.948 303.597C532.952 304.698 531.299 306.282 529.992 308.347C528.752 310.343 527.995 312.718 527.72 315.472Z" fill="white"/>
</svg>
